Coordinates
version=1
nRows=12
nColumns=24
inDegrees=yes

Units are S.I. units (second, meters, Newtons, ...)
Angles are in degrees.

endheader
time	pelvis_tilt	pelvis_list	pelvis_rotation	pelvis_tx	pelvis_ty	pelvis_tz	hip_flexion_r	hip_adduction_r	hip_rotation_r	knee_angle_r	ankle_angle_r	subtalar_angle_r	mtp_angle_r	hip_flexion_l	hip_adduction_l	hip_rotation_l	knee_angle_l	ankle_angle_l	subtalar_angle_l	mtp_angle_l	lumbar_extension	lumbar_bending	lumbar_rotation
      1.15383333	     -1.24794991	      1.99547832	     -2.37452043	      0.18590682	      1.06210171	      0.28181353	     11.65294450	     -6.29954503	     -6.61210431	    -69.57249316	      1.25550354	     -4.44063896	      9.91191096	     15.70800670	      2.10088099	      0.65679996	    -27.30072854	     14.99254750	      2.46609164	      3.66883081	     -8.24914194	     -1.58290055	     -0.60807628
      1.15800000	     -1.23372658	      1.82431917	     -2.44859606	      0.19132137	      1.06363076	      0.28183841	     12.25293001	     -6.07661786	     -6.70251146	    -69.70472511	      1.64028784	     -4.23658544	      9.61336883	     15.10702122	      1.93091101	      0.69726875	    -26.79858284	     15.02193272	      2.42035324	      3.64698460	     -8.25695591	     -1.40583617	     -0.70854396
      1.16216667	     -1.25622452	      1.64587715	     -2.54619951	      0.19669429	      1.06508295	      0.28194609	     12.89665834	     -5.82134743	     -6.76373070	    -69.77433824	      1.98897434	     -4.11919936	      9.52188811	     14.55661453	      1.73267150	      0.66020891	    -26.31587270	     15.01854359	      2.40161638	      3.63732773	     -8.26081558	     -1.19281488	     -0.73792498
      1.16633333	     -1.24986901	      1.47851037	     -2.61908707	      0.20210063	      1.06657969	      0.28200479	     13.48183346	     -5.59202354	     -6.86450611	    -69.75823146	      2.39302005	     -3.79284793	      9.37895310	     13.95625119	      1.56107769	      0.67330213	    -25.79183557	     15.02653520	      2.36991536	      3.62267500	     -8.26215760	     -1.01084081	     -0.80791955
      1.17050000	     -1.25022303	      1.30731361	     -2.69653279	      0.20747261	      1.06803275	      0.28209961	     14.06666426	     -5.34487534	     -6.95561108	    -69.67389088	      2.79219067	     -3.46939688	      9.26608679	     13.36733771	      1.37888643	      0.66225727	    -25.27127805	     15.01029807	      2.33583404	      3.60878490	     -8.27743870	     -0.81432428	     -0.87095689
      1.17466667	     -1.25325378	      1.10915869	     -2.77316539	      0.21282277	      1.06947886	      0.28221772	     14.63678661	     -5.05493796	     -7.04627585	    -69.50370347	      3.16677427	     -3.15446890	      9.21716595	     12.78501604	      1.16256524	      0.63629489	    -24.75757396	     14.97159256	      2.32240755	      3.59938710	     -8.30774811	     -0.58798354	     -0.91686652
      1.17883333	     -1.22095663	      0.94815954	     -2.83161986	      0.21819851	      1.07095749	      0.28229544	     15.14961121	     -4.82474427	     -7.17057795	    -69.26891316	      3.58569189	     -2.68964289	      9.14932057	     12.14535743	      0.99934275	      0.64784878	    -24.19746292	     14.95691947	      2.29187337	      3.58722731	     -8.35140382	     -0.40505956	     -0.99886690
      1.18300000	     -1.20009562	      0.76941720	     -2.89058416	      0.22355627	      1.07239951	      0.28239627	     15.65939690	     -4.56195584	     -7.28999497	    -68.95731914	      3.97900338	     -2.25273049	      9.09360598	     11.52230160	      0.81307930	      0.64944049	    -23.64406182	     14.91152238	      2.25417514	      3.57442887	     -8.39647768	     -0.20060152	     -1.07089545
      1.18716667	     -1.16988772	      0.59196715	     -2.94442664	      0.22889789	      1.07381899	      0.28249902	     16.14367934	     -4.29898565	     -7.41479810	    -68.57812009	      4.36830374	     -1.79617920	      9.05413433	     10.88903229	      0.62812200	      0.64720591	    -23.08536653	     14.86309316	      2.22214477	      3.56245728	     -8.45504075	      0.00382648	     -1.14063680
      1.19133333	     -1.12971487	      0.41186017	     -2.99133986	      0.23424225	      1.07522056	      0.28259460	     16.59792421	     -4.03523196	     -7.55306780	    -68.12784388	      4.75011229	     -1.33072568	      9.02713228	     10.24457092	      0.44149127	      0.64358384	    -22.52413505	     14.80949451	      2.19291814	      3.55085622	     -8.52895282	      0.21204554	     -1.21416871
      1.19550000	     -1.09163723	      0.22871800	     -3.03258023	      0.23957198	      1.07656803	      0.28269438	     17.03876742	     -3.76501954	     -7.69605021	    -67.61334075	      5.11936115	     -0.86757501	      9.01164668	      9.60435819	      0.25098627	      0.64104332	    -21.96312604	     14.75944032	      2.17082428	      3.54015552	     -8.60048565	      0.42392704	     -1.28634562
      1.19966667	     -1.05312683	      0.05482745	     -3.06921414	      0.24490404	      1.07787473	      0.28279576	     17.46380376	     -3.50545720	     -7.84459543	    -67.03895189	      5.48028695	     -0.40637628	      9.00689538	      8.96318479	      0.07101538	      0.63712260	    -21.39744624	     14.70249578	      2.14246053	      3.53009759	     -8.67192034	      0.62738924	     -1.36046316
